<?xml version="1.0" encoding="UTF-8"?> <svg xmlns="http://www.w3.org/2000/svg" id="chrome" shape-rendering="geometricPrecision" text-rendering="geometricPrecision" viewBox="0 0 48 48" style="white-space: pre;"> <style> @keyframes a0_t { 0% { transform: translate(24px,24px) rotate(0deg); } 10.7112% { transform: translate(24px,24px) rotate(0deg); animation-timing-function: cubic-bezier(0.333,0,0.667,1); } 21.4224% { transform: translate(24px,24px) rotate(3deg); animation-timing-function: cubic-bezier(0.553,0,0.445,1); } 78.5775% { transform: translate(24px,24px) rotate(-363deg); animation-timing-function: cubic-bezier(0.333,0,0.667,1); } 89.2887% { transform: translate(24px,24px) rotate(-360deg); } 100% { transform: translate(24px,24px) rotate(-360deg); } } @keyframes Logo_t { 0% { transform: scale(1,1) translate(-24px,-24px); } 10.7112% { transform: scale(1,1) translate(-24px,-24px); animation-timing-function: cubic-bezier(0.333,0,0.667,1); } 21.4224% { transform: scale(1.05,0.85) translate(-24px,-24px); animation-timing-function: cubic-bezier(0.333,0,0.667,1); } 32.1336% { transform: scale(1,1) translate(-24px,-24px); animation-timing-function: cubic-bezier(0.333,0,0.667,1); } 67.8663% { transform: scale(1,1) translate(-24px,-24px); animation-timing-function: cubic-bezier(0.333,0,0.667,1); } 78.5775% { transform: scale(1.05,0.85) translate(-24px,-24px); animation-timing-function: cubic-bezier(0.333,0,0.667,1); } 89.2887% { transform: scale(1,1) translate(-24px,-24px); } 100% { transform: scale(1,1) translate(-24px,-24px); } } </style> <g id="Logo" style="animation: 1.167s linear infinite both a0_t;"> <g transform="translate(24,24) translate(-24,-24)" style="animation: 1.167s linear infinite both Logo_t;"> <g id="Group-10" opacity="1" transform="translate(24,24)"> <path id="Path-1" fill="#4caf50" d="M20,0C20,11.044,11.044,20,0,20C-11.044,20,-20,11.044,-20,0C-20,-11.044,-11.044,-20,0,-20C11.044,-20,20,-11.044,20,0Z" fill-opacity="1" fill-rule="nonzero"></path> </g> <g id="Group-9" opacity="1" transform="translate(33.578,24)"> <path id="Path-1-2" fill="#ffc107" d="M-9.579,-20C-9.579,-20,-9.579,0,-9.579,0C-9.579,0,-1.579,4,-1.579,4C-1.579,4,-10.421,20,-10.421,20C-10.104,20,-9.896,20,-9.579,20C1.474,20,10.421,11.053,10.421,0C10.421,-11.053,1.474,-20,-9.579,-20Z" fill-opacity="1" fill-rule="nonzero"></path> </g> <g id="Group-8" opacity="1" transform="translate(24,24)"> <path id="Path-1-3" fill="#4caf50" d="M20,0C20,11.044,11.044,20,0,20C-11.044,20,-20,11.044,-20,0C-20,-11.044,-11.044,-20,0,-20C11.044,-20,20,-11.044,20,0Z" fill-opacity="1" fill-rule="nonzero"></path> </g> <g id="Group-7" opacity="1" transform="translate(33.578,24)"> <path id="Path-1-4" fill="#ffc107" d="M-9.579,-20C-9.579,-20,-9.579,0,-9.579,0C-9.579,0,-1.579,4,-1.579,4C-1.579,4,-10.421,20,-10.421,20C-10.104,20,-9.896,20,-9.579,20C1.474,20,10.421,11.053,10.421,0C10.421,-11.053,1.474,-20,-9.579,-20Z" fill-opacity="1" fill-rule="nonzero"></path> </g> <g id="Group-6" opacity="1" transform="translate(24.49,16)"> <path id="Path-1-5" fill="#f44336" d="M17.35,-1C17.35,-1,-0.49,-1,-0.49,-1C-0.49,-1,-0.49,12,-0.49,12C-0.49,12,-3.49,11,-3.49,11C-3.49,11,-17.33,-2.74,-17.33,-2.74C-17.33,-2.74,-17.35,-2.74,-17.35,-2.74C-13.81,-8.31,-7.58,-12,-0.49,-12C7.31,-12,14.06,-7.52,17.35,-1Z" fill-opacity="1" fill-rule="nonzero"></path> </g> <g id="Group-5" opacity="1" transform="translate(14.079,20.695)"> <path id="Path-1-6" fill="#dd2c00" d="M-6.921,-7.431C-6.921,-7.431,1.922,7.431,1.922,7.431C1.922,7.431,6.921,6.305,6.921,6.305C6.921,6.305,-6.921,-7.431,-6.921,-7.431Z" fill-opacity="1" fill-rule="nonzero"></path> </g> <g id="Group-4" opacity="1" transform="translate(27.624,34.5)"> <path id="Path-1-7" fill="#558b2f" d="M-4.467,9.5C-4.467,9.5,4.467,-6.559,4.467,-6.559C4.467,-6.559,0.376,-9.5,0.376,-9.5C0.376,-9.5,-4.467,9.5,-4.467,9.5Z" fill-opacity="1" fill-rule="nonzero"></path> </g> <g id="Group-3" opacity="1" transform="translate(32.143,17.29)"> <path id="Path-1-8" fill="#f9a825" d="M9.722,-2.29C9.722,-2.29,-8.143,-2.29,-8.143,-2.29C-8.143,-2.29,-9.722,2.29,-9.722,2.29C-9.722,2.29,9.722,-2.29,9.722,-2.29Z" fill-opacity="1" fill-rule="nonzero"></path> </g> <g id="Group-2" opacity="1" transform="translate(24,24)"> <path id="Path-1-9" fill="#ffffff" d="M9,0C9,4.969,4.969,9,0,9C-4.969,9,-9,4.969,-9,0C-9,-4.969,-4.969,-9,0,-9C4.969,-9,9,-4.969,9,0Z" fill-opacity="1" fill-rule="nonzero"></path> </g> <g id="Group-1" opacity="1" transform="translate(24,24)"> <path id="Path-1-10" fill="#2196f3" d="M7,0C7,3.867,3.867,7,0,7C-3.867,7,-7,3.867,-7,0C-7,-3.867,-3.867,-7,0,-7C3.867,-7,7,-3.867,7,0Z" fill-opacity="1" fill-rule="nonzero"></path> </g> </g> </g> </svg> 